<svg preserveAspectRatio="xMidYMid meet" data-bbox="31.522 33.803 136.948 132.394" viewBox="31.522 33.803 136.948 132.394" height="200" width="200" xmlns="http://www.w3.org/2000/svg" data-type="shape" role="img" aria-labelledby="svgcid--6kjozp3khgxu"><title id="svgcid--6kjozp3khgxu">Vacuum cleaning a house</title>
    <g>
        <path d="M115.281 138.101c-7.747 0-14.049 6.302-14.049 14.048 0 7.747 6.303 14.048 14.049 14.048s14.048-6.302 14.048-14.048-6.301-14.048-14.048-14.048zm0 25.576c-6.357 0-11.529-5.171-11.529-11.528 0-6.356 5.172-11.527 11.529-11.527s11.527 5.171 11.527 11.527c.001 6.357-5.17 11.528-11.527 11.528zM32.775 46.181a1.26 1.26 0 01.015-2.52h.015c11.834.141 16.931 19.694 17.141 20.526a1.259 1.259 0 11-2.442.62c-.048-.185-4.825-18.507-14.729-18.626zm16.12-6.537a1.26 1.26 0 111.877-1.681c7.512 8.396 8.26 25.75 8.288 26.485a1.259 1.259 0 01-1.209 1.308l-.051.001a1.259 1.259 0 01-1.257-1.212c-.006-.17-.745-17.185-7.648-24.901zm17.52 24.853V35.063a1.26 1.26 0 112.52 0v29.434a1.26 1.26 0 11-2.52 0zm18.985-.302c.207-.833 5.17-20.393 17.145-20.534h.015a1.26 1.26 0 01.015 2.52C92.542 46.3 87.892 64.614 87.848 64.8a1.263 1.263 0 01-1.526.92 1.26 1.26 0 01-.922-1.525zm-9.112.263c.023-.735.642-18.102 8.296-26.503a1.261 1.261 0 011.864 1.698c-7.026 7.71-7.635 24.712-7.64 24.882a1.26 1.26 0 01-1.26 1.222l-.039-.001a1.259 1.259 0 01-1.221-1.298zm38.993 82.431a5.267 5.267 0 00-5.261 5.26 5.267 5.267 0 005.261 5.261 5.266 5.266 0 005.259-5.261c0-2.9-2.359-5.26-5.259-5.26zm0 8a2.743 2.743 0 01-2.74-2.74 2.743 2.743 0 012.74-2.739 2.742 2.742 0 012.739 2.739 2.743 2.743 0 01-2.739 2.74zm53.189-1.536c0-17.812-12.823-32.754-32.67-38.069-3.206-.858-6.702-1.548-10.268-2.127-.057-.011-.111-.025-.17-.027-8.004-1.29-16.377-1.965-22.864-2.302-3.349-.182-6.537 1.004-8.971 3.315a12.056 12.056 0 00-3.789 8.824v.846h-6.36a1.26 1.26 0 00-1.26 1.26v7.541H68.935V93.159h4.821c.427 0 .825-.217 1.058-.575l4.063-6.278h7.564c3.795 0 6.882-3.086 6.882-6.88v-6.577a1.26 1.26 0 00-1.26-1.26H43.287a1.26 1.26 0 00-1.26 1.26v6.577a6.887 6.887 0 006.88 6.88h7.564l4.063 6.278c.233.359.632.575 1.058.575h4.823v39.455H53.391c-8.57 0-15.542 6.972-15.542 15.542s6.972 15.542 15.542 15.542 15.542-6.972 15.542-15.542l.002-13.023h13.184v7.085c0 .696.564 1.26 1.26 1.26h6.36v6.678a10.48 10.48 0 005.376 9.147 1.26 1.26 0 001.228-2.201 7.961 7.961 0 01-4.082-6.947v-27.192a9.56 9.56 0 013.003-6.996 9.553 9.553 0 017.105-2.625c6.256.324 14.282.965 21.988 2.174l3.104 9.456a8.097 8.097 0 005.083 5.114c14.467 4.871 24.443 15.282 27.009 28.017h-25.209a1.26 1.26 0 100 2.52h26.643c.033.003.062.017.095.017.064 0 .128-.005.194-.015.014-.002.025-.012.039-.014 3.954-.061 7.155-3.288 7.155-7.258zM44.547 79.426v-5.317h46.256v5.317a4.365 4.365 0 01-4.361 4.36H48.907a4.366 4.366 0 01-4.36-4.36zm14.927 6.88h16.4l-2.804 4.333H62.278l-2.804-4.333zm6.939 61.85c0 7.18-5.842 13.022-13.022 13.022s-13.022-5.842-13.022-13.022c0-7.18 5.842-13.022 13.022-13.022h13.024l-.002 13.022zm18.227-7.197v-14.627h5.1v14.627h-5.1zm77.461 17.056c-2.613-13.816-13.261-25.098-28.753-30.315a5.553 5.553 0 01-3.492-3.511l-2.697-8.214c2.775.495 5.473 1.07 7.988 1.743 18.713 5.01 30.802 18.997 30.802 35.634a4.756 4.756 0 01-3.848 4.663zm-52.694-34.444c0-2.014-1.639-3.653-3.653-3.653s-3.653 1.638-3.653 3.653c0 2.014 1.639 3.653 3.653 3.653s3.653-1.639 3.653-3.653zm-4.785 0c0-.624.509-1.132 1.132-1.132.624 0 1.132.508 1.132 1.132s-.509 1.132-1.132 1.132a1.134 1.134 0 01-1.132-1.132z"/>
    </g>
</svg>