<svg preserveAspectRatio="xMidYMid meet" data-bbox="20.278 51.076 159.449 97.849" viewBox="20.278 51.076 159.449 97.849" height="200" width="200" xmlns="http://www.w3.org/2000/svg" data-type="shape" role="img" aria-labelledby="svgcid-wqpf6p3u4oqj"><title id="svgcid-wqpf6p3u4oqj">Male and female maids with a broom.</title>
    <g>
        <path d="M124.309 135.826c.342-.225.581-.594.581-1.034v-3.62a4.56 4.56 0 00-4.555-4.556h-17.971v-3.941a2.452 2.452 0 00-2.192-2.43v-49.25a5.034 5.034 0 00-5.028-5.027 5.032 5.032 0 00-5.026 5.027v49.25a2.45 2.45 0 00-2.192 2.43v3.941H69.955a4.562 4.562 0 00-4.557 4.556v3.62c0 .44.239.809.581 1.034l-3.814 11.439a1.262 1.262 0 001.196 1.658h63.564a1.262 1.262 0 001.196-1.658l-3.812-11.439zM95.144 68.49a2.509 2.509 0 012.507 2.506v49.224h-5.013V70.996a2.51 2.51 0 012.506-2.506zm-4.763 54.25l.965-.007c.011 0 .021.007.032.007.012 0 .022-.007.035-.007l7.222-.049c.092.021.178.056.276.056.105 0 .198-.036.295-.06l.637-.004v3.941H90.43l-.049-3.877zm-22.462 8.433a2.04 2.04 0 012.036-2.036h50.38c1.122 0 2.035.913 2.035 2.036v2.36H67.919v-2.36zm46.563 15.231l-2.684-10.351h4.017l3.068 10.351h-4.401zm-43.076 0l3.068-10.351h4.017l-2.684 10.351h-4.401zm9.688-10.351h3.619l-1.917 10.351H78.41l2.684-10.351zm6.182 0h3.698l-.766 10.351h-4.849l1.917-10.351zm6.225 0h3.287l.767 10.351h-4.819l.765-10.351zm5.814 0h3.698l1.917 10.351h-4.848l-.767-10.351zm6.261 0h3.619l2.684 10.351h-4.386l-1.917-10.351zm-37.013 0h3.284l-3.068 10.351h-3.667l3.451-10.351zm52.947 10.351l-3.068-10.351h3.284l3.451 10.351h-3.667zm-66.782 0H37.515v-16.428a1.26 1.26 0 10-2.52 0v16.428h-8.263a3.94 3.94 0 01-3.935-3.936v-5.938c0-13.925 6.009-20.969 20.711-24.199l8.928 6.202a1.256 1.256 0 001.437.001l8.93-6.202c8.811 1.936 14.379 5.235 17.502 10.357a1.261 1.261 0 002.153-1.311c-3.523-5.779-9.667-9.445-19.28-11.533-1.1-1.269-1.651-5.663-1.712-8.706 4.604-3.275 8.15-8.918 9.907-14.646a2.192 2.192 0 001.488-1.636c2.893-13.23 2.333-21.762-1.762-26.85-3.274-4.067-8.649-5.974-17.342-6.124-.218-.03-.435-.009-.65-.008-.215-.001-.432-.022-.65.008-8.657.15-14.006 2.045-17.26 6.086-4.076 5.06-4.631 13.572-1.748 26.791.175.794.73 1.385 1.459 1.628 1.748 5.777 5.305 11.469 9.939 14.76-.06 3.039-.61 7.421-1.709 8.694-16.009 3.477-22.86 11.473-22.86 26.689v5.938a6.463 6.463 0 006.455 6.456H54.73a1.26 1.26 0 10-.002-2.521zm-17.57-86.853c2.816-3.497 7.747-5.094 15.948-5.155 8.239.062 13.193 1.67 16.028 5.192 3.467 4.306 3.953 11.81 1.513 23.565-.886-3.584-1.936-9.109-2.067-9.806-.123-1.496-1.396-2.624-3.001-2.641-5.625-.062-12.034-3.68-12.098-3.717a1.263 1.263 0 00-.374-.14 2.522 2.522 0 00-2.323.695 2.315 2.315 0 00-.624 2.124c.013.057.03.115.049.17l1.352 3.628-8.247-4.361c-1.575-.825-3.556-.477-4.709.829a1.265 1.265 0 00-.289.569l-2.678 12.428c-2.405-11.668-1.915-19.115 1.52-23.38zm.171 26.146c.212-.257.391-.549.483-.906l2.883-13.37c.404-.284.98-.328 1.444-.086l11.168 5.905c.461.246 1.026.18 1.421-.167.392-.345.532-.897.35-1.387l-2.319-6.22c1.746.924 7.436 3.702 12.792 3.76.172.002.504.075.517.341a1.4 1.4 0 00.02.171c.057.306 1.418 7.549 2.427 11.236.086.314.248.578.439.814-2.4 7.757-8.586 15.703-15.8 15.703-7.254.001-13.442-7.991-15.825-15.794zm15.825 18.315c2.051 0 4.008-.518 5.842-1.402.126 2.336.525 5.919 1.744 8.086l-7.586 5.269-7.585-5.268c1.218-2.166 1.617-5.746 1.744-8.083 1.834.881 3.789 1.398 5.841 1.398zm125.711 11.872c-.646-.217-15.779-5.457-11.937-18.265 8.862-29.541-3.101-40.761-6.98-43.496-5.335-3.762-11.823-4.033-16.825-.852-5.005-3.181-11.493-2.91-16.824.852-3.879 2.735-15.843 13.955-6.982 43.496 1.254 4.175 1.083 7.633-.505 10.278-2.263 3.767-6.739 4.7-6.78 4.708a1.26 1.26 0 10.479 2.475c.228-.044 5.587-1.132 8.444-5.857 1.985-3.283 2.246-7.43.778-12.327-4.366-14.551-5.077-32.888 6.019-40.713 4.618-3.258 10.238-3.451 14.419-.549.254.265.592.393.943.381.357.018.704-.111.964-.381 4.18-2.9 9.798-2.711 14.419.548 11.096 7.825 10.383 26.161 6.017 40.713-3.331 11.11 5.41 17.389 10.383 19.973-4.11 1.058-11.494 2.204-17.042-1.135-4.148-2.496-6.626-7.136-7.366-13.792a1.26 1.26 0 00-.155-.482c6.138-4.467 10.232-13.924 10.669-21.36.616.066 1.242.111 1.888.111a1.26 1.26 0 100-2.52c-9.415 0-15.518-8.93-15.578-9.021a1.257 1.257 0 00-.945-.554c-.366-.04-.76.112-1.021.393-.087.092-8.779 9.182-22.101 9.182a1.26 1.26 0 100 2.52c.642 0 1.268-.027 1.888-.063.445 7.322 4.431 16.57 10.41 21.103-.071 3.037-.621 7.341-1.71 8.596-9.614 2.089-15.756 5.754-19.278 11.533a1.26 1.26 0 102.153 1.311c3.074-5.045 8.553-8.307 17.133-10.255.036.032.057.074.098.102l2.438 1.696c2 1.389 4.345 2.084 6.69 2.084 2.345 0 4.69-.695 6.69-2.084l1.778-1.235c1.335 2.029 3 3.682 5.03 4.901 3.249 1.953 6.944 2.589 10.382 2.589a30.89 30.89 0 003.689-.232c.028.216.092.428.236.612a18.052 18.052 0 012.276 3.804c1.429 3.208 2.123 7.068 2.123 11.802v5.969a3.966 3.966 0 01-3.963 3.962h-9.292v-16.428a1.26 1.26 0 10-2.52 0v16.428h-24.821a1.26 1.26 0 100 2.52h36.634a6.49 6.49 0 006.483-6.482v-5.969c0-5.094-.766-9.29-2.34-12.828a20.732 20.732 0 00-2.228-3.799c3.222-.63 5.488-1.509 5.708-1.597a1.26 1.26 0 00-.068-2.366zm-51.224-35.978c9.438-1.289 16.002-6.408 18.47-8.641 1.78 2.21 6.118 6.807 12.39 8.39-.393 9.856-7.478 21.837-15.436 21.837-7.889 0-14.922-11.779-15.424-21.586zm20.678 32.255a9.25 9.25 0 01-10.505.001l-1.707-1.186c1.319-2.081 1.756-5.765 1.897-8.208 1.591.778 3.28 1.244 5.062 1.244 1.761 0 3.43-.458 5.004-1.219.389 3.05 1.138 5.712 2.226 7.994l-1.977 1.374z"/>
    </g>
</svg>