<svg preserveAspectRatio="xMidYMid meet" data-bbox="33.5 36 133 128" viewBox="33.5 36 133 128" height="200" width="200" xmlns="http://www.w3.org/2000/svg" data-type="shape" role="img" aria-labelledby="svgcid--qygfrs7dqbf2"><title id="svgcid--qygfrs7dqbf2">A check mark signfying the money back guarantee for our houe cleaning services.</title>
    <g>
        <path d="m165.345 49.488-65.821 66.666c-.745.754-1.758 1.179-2.815 1.179s-2.069-.424-2.815-1.179l-19.747-20a4.022 4.022 0 0 1 .015-5.657 3.95 3.95 0 0 1 5.615.015l16.932 17.149 63.006-63.815a3.953 3.953 0 0 1 5.615-.015 4.022 4.022 0 0 1 .015 5.657zM155.948 96c-2.193 0-3.97 1.791-3.97 4v46.667c0 5.146-4.124 9.333-9.194 9.333h-92.15c-5.069 0-9.194-4.187-9.194-9.333V53.333c0-5.146 4.124-9.333 9.194-9.333h72.404c2.193 0 3.97-1.791 3.97-4s-1.778-4-3.97-4H50.634C41.186 36 33.5 43.775 33.5 53.333v93.334c0 9.558 7.686 17.333 17.134 17.333h92.15c9.448 0 17.134-7.775 17.134-17.333V100c0-2.209-1.778-4-3.97-4z"/>
    </g>
</svg>