<svg preserveAspectRatio="xMidYMid meet" data-bbox="54.863 48.924 90.274 102.149" viewBox="54.863 48.924 90.274 102.149" height="200" width="200" xmlns="http://www.w3.org/2000/svg" data-type="shape" role="img" aria-labelledby="svgcid--xc1jg4-v6y2xx"><title id="svgcid--xc1jg4-v6y2xx">Cleaning wipe icon</title>
    <g>
        <path d="M145.03 133.525c-4.883-8.721-9.704-22.489-4.942-38.551 5.981-20.173 2.968-35.391 1.395-40.997a1.27 1.27 0 00-1.474-.893c-6.436 1.365-19.748 2.908-36.655-2.105C83.945 45.228 67.8 52.852 59.9 57.908a1.259 1.259 0 00-.56 1.287c1.383 7.605 2.086 19.863-2.419 35.061-5.776 19.483 1.918 35.674 7.019 43.592a1.256 1.256 0 001.7.4 54.464 54.464 0 0113.03-4.798c1.214 3.168 2.572 6.1 4.109 8.21 4.488 6.158 10.836 9.413 18.364 9.413h.034c8.155-.01 16.76-3.73 19.65-13.579 11.809.846 20.305-1.199 23.468-2.144.34-.102.584-.417.738-.736.151-.316.128-.76-.003-1.089zm-43.859 15.03h-.032c-6.782 0-12.275-2.818-16.326-8.377-2.895-3.972-5.225-11.472-7.098-17.499a207.008 207.008 0 00-1.379-4.338l-.068-.204c-1.857-5.528-2.994-9.504-.706-10.313 2.386-.845 5.037 3.958 6.847 8.129.382.881.797 2.109 1.277 3.531l.357 1.055a1.26 1.26 0 002.453-.409l-.038-27.891c-.002-1.139.363-2.2 1.026-2.99.61-.726 1.404-1.127 2.235-1.128h.003c1.799 0 3.265 1.843 3.269 4.109 0 .017.009.031.01.049l.028 20.591a1.26 1.26 0 001.26 1.259h.002a1.261 1.261 0 001.259-1.262l-.038-27.892c-.002-1.139.363-2.2 1.026-2.989.61-.727 1.404-1.128 2.235-1.129h.003c1.799 0 3.265 1.843 3.269 4.108v5.662l.001.007.036 22.237a1.26 1.26 0 001.26 1.258h.002a1.26 1.26 0 001.258-1.263l-.038-23.049c-.002-1.139.363-2.2 1.026-2.989.61-.727 1.404-1.127 2.235-1.128h.003c1.799 0 3.265 1.843 3.269 4.107l-.001 11.232v.003l.035 12.277a1.26 1.26 0 001.26 1.257h.003a1.26 1.26 0 001.257-1.263l-.035-12.275c-.002-1.997 1.275-3.623 2.848-3.626h.002c1.571 0 2.851 1.623 2.853 3.616l.001 28.86c.001 17.299-13.89 18.661-18.149 18.667zm20.231-13.558c.28-1.571.439-3.264.439-5.108l-.001-28.861c-.004-3.384-2.415-6.135-5.375-6.135h-.005c-1.047.001-2.018.361-2.844.957v-6.043c-.005-3.655-2.601-6.626-5.788-6.626-1.184-.001-2.344.423-3.317 1.201-.267-3.379-2.723-6.044-5.737-6.044h-.007c-1.587.002-3.065.722-4.162 2.028-1.044 1.243-1.618 2.881-1.615 4.613l.002 1.793c-.932-.735-2.057-1.17-3.271-1.17h-.007c-1.587.002-3.065.722-4.162 2.027-1.044 1.243-1.618 2.882-1.615 4.614l.029 21.034c-2.114-4.487-5.193-9.267-9.245-7.829-4.803 1.698-2.699 7.963-.843 13.491l.069.204c.419 1.25.873 2.708 1.362 4.283.751 2.416 1.576 5.059 2.485 7.644a56.746 56.746 0 00-12.345 4.449c-4.837-7.856-11.379-22.784-6.112-40.544 4.485-15.13 3.959-27.466 2.629-35.388 7.768-4.809 22.787-11.494 40.671-6.19 16.48 4.885 29.691 3.724 36.719 2.389 1.544 6.134 3.744 20.161-1.684 38.472-4.785 16.136-.4 30.035 4.402 39.094-3.731.956-11.025 2.285-20.672 1.645zm-6.571-69.373a1.26 1.26 0 01-1.438 1.053 76.408 76.408 0 01-11.623-2.757c-7.806-2.497-15.847-2.577-23.898-.235a1.26 1.26 0 01-.704-2.42c8.541-2.485 17.077-2.399 25.37.255a73.942 73.942 0 0011.239 2.666 1.26 1.26 0 011.054 1.438zm-11.476 3.624a1.26 1.26 0 01-1.584.816c-5.453-1.745-11.069-2.314-16.689-1.685a1.263 1.263 0 01-1.392-1.113 1.261 1.261 0 011.113-1.392c5.977-.666 11.944-.064 17.736 1.79a1.26 1.26 0 01.816 1.584z"/>
    </g>
</svg>